<svg id="instagram-2-1" xmlns="http://www.w3.org/2000/svg" xmlns:xlink="http://www.w3.org/1999/xlink" width="47.274" height="47.274" viewBox="0 0 47.274 47.274">
  <defs>
    <radialGradient id="radial-gradient" cx="0.065" cy="0.978" r="1.27" gradientTransform="translate(0)" gradientUnits="objectBoundingBox">
      <stop offset="0" stop-color="#fff"/>
      <stop offset="0.547" stop-color="#fff"/>
      <stop offset="1" stop-color="#fff"/>
      <stop offset="1" stop-color="#d82d7e"/>
    </radialGradient>
    <radialGradient id="radial-gradient-2" cx="0.693" cy="0.946" r="1.117" gradientTransform="translate(0)" gradientUnits="objectBoundingBox">
      <stop offset="0" stop-color="#fff" stop-opacity="0"/>
      <stop offset="0.64" stop-color="#8c3aaa" stop-opacity="0"/>
      <stop offset="0.675" stop-color="#fff" stop-opacity="0.098"/>
      <stop offset="1" stop-color="#fff"/>
    </radialGradient>
  </defs>
  <path id="Path_4" data-name="Path 4" d="M11.987,47.107a15.916,15.916,0,0,1-5.354-.992,8.958,8.958,0,0,1-3.316-2.157,8.89,8.89,0,0,1-2.157-3.314,15.916,15.916,0,0,1-.992-5.354C.028,32.25,0,31.339,0,23.639s.031-8.61.167-11.652a16.006,16.006,0,0,1,.992-5.354A8.993,8.993,0,0,1,3.316,3.316,8.9,8.9,0,0,1,6.632,1.159,15.916,15.916,0,0,1,11.986.167C15.026.028,15.94,0,23.636,0s8.61.031,11.652.167a16.006,16.006,0,0,1,5.354.992,8.924,8.924,0,0,1,3.316,2.157,8.93,8.93,0,0,1,2.157,3.316,15.916,15.916,0,0,1,.992,5.354c.139,3.042.167,3.952.167,11.652s-.028,8.61-.167,11.652a15.989,15.989,0,0,1-.992,5.354,9.547,9.547,0,0,1-5.472,5.471,15.916,15.916,0,0,1-5.354.992c-3.039.139-3.952.167-11.652.167s-8.61-.027-11.649-.167" transform="translate(0 0)" fill="url(#radial-gradient)"/>
  <path id="Path_5" data-name="Path 5" d="M11.987,47.107a15.916,15.916,0,0,1-5.354-.992,8.958,8.958,0,0,1-3.316-2.157,8.89,8.89,0,0,1-2.157-3.314,15.916,15.916,0,0,1-.992-5.354C.028,32.25,0,31.339,0,23.639s.031-8.61.167-11.652a16.006,16.006,0,0,1,.992-5.354A8.993,8.993,0,0,1,3.316,3.316,8.9,8.9,0,0,1,6.632,1.159,15.916,15.916,0,0,1,11.986.167C15.026.028,15.94,0,23.636,0s8.61.031,11.652.167a16.006,16.006,0,0,1,5.354.992,8.924,8.924,0,0,1,3.316,2.157,8.93,8.93,0,0,1,2.157,3.316,15.916,15.916,0,0,1,.992,5.354c.139,3.042.167,3.952.167,11.652s-.028,8.61-.167,11.652a15.989,15.989,0,0,1-.992,5.354,9.547,9.547,0,0,1-5.472,5.471,15.916,15.916,0,0,1-5.354.992c-3.039.139-3.952.167-11.652.167s-8.61-.027-11.649-.167" transform="translate(0 0)" fill="url(#radial-gradient-2)"/>
  <path id="Path_6" data-name="Path 6" d="M447.559,457.082a5.854,5.854,0,1,1,5.853,5.855,5.854,5.854,0,0,1-5.853-5.855m-3.165,0a9.018,9.018,0,1,0,9.018-9.018,9.018,9.018,0,0,0-9.018,9.018m16.286-9.376a2.107,2.107,0,1,0,2.108-2.107h0a2.108,2.108,0,0,0-2.108,2.107m-14.363,23.671a9.707,9.707,0,0,1-3.261-.6,5.815,5.815,0,0,1-3.334-3.332,9.7,9.7,0,0,1-.6-3.261c-.085-1.851-.1-2.407-.1-7.1s.018-5.245.1-7.1a9.771,9.771,0,0,1,.6-3.261,5.812,5.812,0,0,1,3.334-3.334,9.7,9.7,0,0,1,3.261-.6c1.851-.085,2.407-.1,7.1-.1s5.245.018,7.1.1a9.771,9.771,0,0,1,3.261.6,5.812,5.812,0,0,1,3.334,3.334,9.7,9.7,0,0,1,.6,3.261c.085,1.853.1,2.407.1,7.1s-.017,5.245-.1,7.1a9.741,9.741,0,0,1-.6,3.261,5.815,5.815,0,0,1-3.334,3.332,9.7,9.7,0,0,1-3.261.6c-1.851.085-2.407.1-7.1.1s-5.245-.017-7.1-.1m-.145-31.752a12.878,12.878,0,0,0-4.263.816,8.979,8.979,0,0,0-5.137,5.137,12.881,12.881,0,0,0-.816,4.263c-.087,1.873-.106,2.471-.106,7.241s.02,5.368.106,7.241a12.881,12.881,0,0,0,.816,4.263,8.979,8.979,0,0,0,5.137,5.137,12.889,12.889,0,0,0,4.263.816c1.874.085,2.471.106,7.241.106s5.368-.02,7.241-.106a12.881,12.881,0,0,0,4.263-.816,8.979,8.979,0,0,0,5.137-5.137,12.848,12.848,0,0,0,.816-4.263c.085-1.874.1-2.471.1-7.241s-.02-5.368-.1-7.241a12.879,12.879,0,0,0-.816-4.263,8.982,8.982,0,0,0-5.135-5.137,12.861,12.861,0,0,0-4.263-.816c-1.873-.086-2.471-.106-7.24-.106s-5.368.02-7.242.106" transform="translate(-429.726 -433.345)"/>
</svg>
