<svg xmlns="http://www.w3.org/2000/svg" width="83.122" height="46.082" viewBox="0 0 83.122 46.082">
  <path id="soundcloud-icon" d="M0,246.761A2.68,2.68,0,0,0,1.122,249.1a3.065,3.065,0,0,0,2.4.561,2.708,2.708,0,0,0,1.683-.85,3.372,3.372,0,0,0,.483-2.049V235.55a2.76,2.76,0,0,0-.832-2.03,2.763,2.763,0,0,0-2.031-.831,2.718,2.718,0,0,0-1.992.831A2.76,2.76,0,0,0,0,235.55Zm8.9,4.794a1.924,1.924,0,0,0,.793,1.682,3.436,3.436,0,0,0,2.031.561,3.508,3.508,0,0,0,2.069-.561,1.924,1.924,0,0,0,.793-1.682V225.421a2.716,2.716,0,0,0-.832-1.991,2.764,2.764,0,0,0-2.031-.831A2.839,2.839,0,0,0,8.9,225.421Zm8.858,1.237a1.908,1.908,0,0,0,.812,1.682,3.6,3.6,0,0,0,2.089.561,3.437,3.437,0,0,0,2.031-.561,1.924,1.924,0,0,0,.793-1.682V228.939a2.825,2.825,0,0,0-.832-2.049,2.688,2.688,0,0,0-1.992-.85,2.9,2.9,0,0,0-2.9,2.9v23.853Zm8.9.116q0,2.126,2.862,2.126t2.862-2.126V214.248q0-3.247-1.973-3.673a2.773,2.773,0,0,0-2.514.734,3.632,3.632,0,0,0-1.238,2.938v38.659Zm9.051,1.121V211.967q0-2.01,1.2-2.4a22.1,22.1,0,0,1,5.144-.619,22.925,22.925,0,0,1,22.937,20.992,13.11,13.11,0,0,1,14.292,2.822,13.048,13.048,0,0,1-9.225,22.268L36.4,255a.906.906,0,0,1-.522-.425A1.142,1.142,0,0,1,35.7,254.029Z" transform="translate(0 -208.952)" fill="#fff"/>
</svg>
