<svg xmlns="http://www.w3.org/2000/svg" width="47.274" height="47.274" viewBox="0 0 47.274 47.274">
  <path id="spotify-2" d="M23.637,0A23.637,23.637,0,1,0,47.274,23.637,23.636,23.636,0,0,0,23.637,0Zm10.84,34.09a1.472,1.472,0,0,1-2.026.49C26.9,31.189,19.914,30.422,11.687,32.3a1.473,1.473,0,1,1-.656-2.873c9-2.056,16.727-1.171,22.958,2.635A1.474,1.474,0,0,1,34.477,34.09Zm2.892-6.434a1.844,1.844,0,0,1-2.535.606c-6.352-3.9-16.039-5.035-23.553-2.755a1.842,1.842,0,1,1-1.071-3.526c8.584-2.6,19.256-1.344,26.552,3.14a1.841,1.841,0,0,1,.608,2.534Zm.248-6.7C30,16.429,17.431,16.013,10.156,18.219a2.21,2.21,0,1,1-1.282-4.231c8.35-2.534,22.229-2.045,31,3.161a2.211,2.211,0,0,1-2.256,3.8Z" fill="#fff"/>
</svg>
