<svg xmlns="http://www.w3.org/2000/svg" width="64.073" height="45" viewBox="0 0 64.073 45">
  <g id="youtube-icon" transform="translate(-5.368 -13.434)">
    <path id="Path_1" data-name="Path 1" d="M44.011,33.245c-5.875-3.139-11.5-6.026-17.25-9.039V42.233c6.051-3.289,12.428-6.3,17.275-8.988h-.025Z" transform="translate(4.038 2.033)"/>
    <path id="Path_2" data-name="Path 2" d="M44.011,33.245c-5.875-3.139-17.25-9.039-17.25-9.039L41.927,34.4s-2.763,1.532,2.084-1.154Z" transform="translate(4.038 2.033)"/>
    <path id="Path_3" data-name="Path 3" d="M31.9,58.378c-12.2-.225-16.37-.427-18.932-.955a8.322,8.322,0,0,1-4.344-2.259A9.144,9.144,0,0,1,6.57,51.2a25.952,25.952,0,0,1-.878-5.825,138.361,138.361,0,0,1,0-18.882C6.084,23,6.274,18.862,8.88,16.446a8.548,8.548,0,0,1,4.269-2.159c2.511-.477,13.207-.854,24.28-.854,11.048,0,21.768.377,24.281.854a8.353,8.353,0,0,1,5,2.962c2.377,3.74,2.419,8.39,2.66,12.028.1,1.733.1,11.575,0,13.308-.376,5.749-.678,7.783-1.531,9.892a7.292,7.292,0,0,1-1.758,2.813,8.422,8.422,0,0,1-4.47,2.285c-10.56.794-19.526.966-29.7.8Zm16.171-23.1c-5.875-3.139-11.5-6.051-17.25-9.064V44.243c6.051-3.289,12.43-6.3,17.275-8.989l-.025.025Z" transform="translate(0 0)" fill="#fff"/>
  </g>
</svg>
